<svg xmlns="http://www.w3.org/2000/svg" width="46" height="40" viewBox="0 0 46 40">
    <g fill="none" fill-rule="nonzero">
        <path fill="#FFF" stroke="#DEE0E4" d="M.5.5h45v39H.5z"/>
        <path fill="#263147" d="M29.917 20.658c-.68-.82-1.689-1.39-3.026-1.71.937-.444 1.504-.745 1.7-.9.476-.368.835-.777 1.077-1.23a3.13 3.13 0 0 0 .362-1.498c0-.508-.079-.984-.238-1.429a3.604 3.604 0 0 0-.736-1.217 4.291 4.291 0 0 0-1.157-.89 7.2 7.2 0 0 0-1.088-.456c-.778-.211-1.5-.316-2.165-.316h-.839c-.15 0-.304-.002-.459-.006L23.105 11c-.038 0-.091.002-.16.006a2.936 2.936 0 0 1-.158.006l-.51.011-4.307.153-2.947.07.045.971c.635.086 1.065.137 1.292.153.385.023.646.082.782.175.083.063.129.11.136.14.076.173.117.598.125 1.277.03 1.155.064 2.731.102 4.73l.023 5.817c0 1-.034 1.756-.102 2.271-.03.188-.11.387-.238.597-.348.149-.813.27-1.395.363-.173.024-.43.07-.77.141l-.023 1.1c1.806-.062 2.834-.105 3.083-.129 1.617-.101 2.744-.144 3.378-.128l2.233.046c.877.031 1.625-.012 2.245-.128.982-.188 1.749-.422 2.3-.703.56-.28 1.089-.702 1.587-1.264.379-.43.647-.886.805-1.37a6.01 6.01 0 0 0 .329-1.885c0-1.014-.347-1.935-1.043-2.762zm-8.875-8.3a8.98 8.98 0 0 1 1.473-.152c1.293 0 2.256.293 2.89.878.643.585.964 1.315.964 2.19 0 1.24-.336 2.114-1.008 2.621-.673.508-1.67.761-2.993.761-.499 0-.91-.027-1.235-.082a31.571 31.571 0 0 1-.012-.901l.012-1.147a53.719 53.719 0 0 0-.068-3.266 15.56 15.56 0 0 1-.023-.902zm5.668 13.52c-.28.563-.741 1.004-1.383 1.324-.643.32-1.459.48-2.449.48-.483 0-1.012-.125-1.587-.375-.09-.226-.136-.398-.136-.515l-.034-3.16.012-2.026V19.92c.204-.078.585-.117 1.144-.117 1.263 0 2.196.125 2.8.375.627.25 1.16.741 1.599 1.475.31.515.464 1.218.464 2.107 0 .866-.144 1.573-.43 2.119z"/>
    </g>
</svg>
