<svg xmlns="http://www.w3.org/2000/svg" width="46" height="40" viewBox="0 0 46 40">
    <g fill="none" fill-rule="nonzero">
        <path fill="#FFF" stroke="#DEE0E4" d="M.5.5h45v39H.5z"/>
        <g fill="#263147">
            <path d="M15.927 18.471c-.535 0-.99.199-1.365.595A2.028 2.028 0 0 0 14 20.512c0 .566.187 1.048.562 1.445.375.397.83.595 1.365.595.536 0 .99-.198 1.365-.595.375-.397.562-.879.562-1.445 0-.567-.187-1.049-.562-1.446a1.808 1.808 0 0 0-1.365-.595zM15.927 13.03c-.535 0-.99.199-1.365.595A2.028 2.028 0 0 0 14 15.071c0 .567.187 1.048.562 1.445.375.397.83.595 1.365.595.536 0 .99-.198 1.365-.595.375-.397.562-.879.562-1.445 0-.567-.187-1.049-.562-1.446a1.808 1.808 0 0 0-1.365-.595zM15.927 23.912c-.535 0-.99.199-1.365.595A2.029 2.029 0 0 0 14 25.952c0 .568.187 1.049.562 1.446.375.397.83.595 1.365.595.536 0 .99-.198 1.365-.595.375-.397.562-.878.562-1.446 0-.566-.187-1.048-.562-1.445a1.808 1.808 0 0 0-1.365-.595zM31.892 13.811a.301.301 0 0 0-.226-.1H19.46a.3.3 0 0 0-.226.1.337.337 0 0 0-.095.24v2.04c0 .092.032.172.095.24a.3.3 0 0 0 .226.1h12.206a.3.3 0 0 0 .226-.1.336.336 0 0 0 .095-.24v-2.04a.337.337 0 0 0-.095-.24zM31.666 19.152H19.46a.3.3 0 0 0-.226.1.337.337 0 0 0-.095.24v2.04c0 .092.032.172.095.239a.3.3 0 0 0 .226.101h12.206a.3.3 0 0 0 .226-.101.336.336 0 0 0 .095-.24v-2.04a.336.336 0 0 0-.095-.239.3.3 0 0 0-.226-.1zM31.666 24.592H19.46a.3.3 0 0 0-.226.101.337.337 0 0 0-.095.24v2.04c0 .092.032.172.095.239a.3.3 0 0 0 .226.1h12.206a.3.3 0 0 0 .226-.1.336.336 0 0 0 .095-.24v-2.04a.336.336 0 0 0-.095-.239.302.302 0 0 0-.226-.1z"/>
        </g>
    </g>
</svg>
