<svg xmlns="http://www.w3.org/2000/svg" width="46" height="40" viewBox="0 0 46 40">
    <g fill="none" fill-rule="nonzero">
        <path fill="#FFF" stroke="#DEE0E4" d="M.5.5h45v39H.5z"/>
        <path fill="#263147" d="M23.5 17.75c-1.906 0-3.45 1.512-3.45 3.375 0 1.864 1.544 3.375 3.45 3.375 1.905 0 3.45-1.51 3.45-3.375 0-1.863-1.545-3.375-3.45-3.375zm9.2-3.375h-2.76c-.38 0-.788-.288-.908-.64l-.714-2.095c-.12-.352-.528-.64-.908-.64h-7.82c-.38 0-.788.288-.908.64l-.714 2.095c-.12.352-.528.64-.908.64H14.3c-1.265 0-2.3 1.013-2.3 2.25V26.75c0 1.238 1.035 2.25 2.3 2.25h18.4c1.265 0 2.3-1.012 2.3-2.25V16.625c0-1.237-1.035-2.25-2.3-2.25zM23.5 26.75c-3.176 0-5.75-2.518-5.75-5.625 0-3.106 2.574-5.625 5.75-5.625 3.175 0 5.75 2.519 5.75 5.625 0 3.107-2.575 5.625-5.75 5.625zm8.395-8.552a.796.796 0 0 1-.805-.787c0-.435.36-.788.805-.788.445 0 .805.353.805.788 0 .435-.36.787-.805.787z"/>
    </g>
</svg>
